<mxfile host="app.diagrams.net" modified="2023-10-27T16:23:05.640Z" agent="Mozilla/5.0 (Windows NT 10.0; Win64; x64) AppleWebKit/537.36 (KHTML, like Gecko) Chrome/116.0.0.0 Safari/537.36 OPR/102.0.0.0" etag="FCga6QWh_Ugt7QcCa8_t" version="22.0.8" type="device">
  <diagram name="1 oldal" id="WeSDv-VKDJ8yEZ2YKIZq">
    <mxGraphModel dx="2970" dy="2406" grid="1" gridSize="10" guides="1" tooltips="1" connect="1" arrows="1" fold="1" page="1" pageScale="1" pageWidth="827" pageHeight="1169" math="0" shadow="0">
      <root>
        <mxCell id="0" />
        <mxCell id="1" parent="0" />
        <mxCell id="uLfX691gu2MOgadE7vkb-1" value="Gyárihibás" style="rounded=0;whiteSpace=wrap;html=1;" parent="1" vertex="1">
          <mxGeometry x="160" y="10" width="120" height="60" as="geometry" />
        </mxCell>
        <mxCell id="uLfX691gu2MOgadE7vkb-2" value="Gy_R" style="rhombus;whiteSpace=wrap;html=1;" parent="1" vertex="1">
          <mxGeometry x="180" y="180" width="80" height="80" as="geometry" />
        </mxCell>
        <mxCell id="uLfX691gu2MOgadE7vkb-3" value="Raktárak" style="rounded=0;whiteSpace=wrap;html=1;" parent="1" vertex="1">
          <mxGeometry x="160" y="420" width="120" height="60" as="geometry" />
        </mxCell>
        <mxCell id="uLfX691gu2MOgadE7vkb-4" value="B_R&lt;br&gt;" style="rhombus;whiteSpace=wrap;html=1;" parent="1" vertex="1">
          <mxGeometry x="180" y="690" width="80" height="80" as="geometry" />
        </mxCell>
        <mxCell id="uLfX691gu2MOgadE7vkb-5" value="Beszállító" style="rounded=0;whiteSpace=wrap;html=1;" parent="1" vertex="1">
          <mxGeometry x="160" y="980" width="120" height="60" as="geometry" />
        </mxCell>
        <mxCell id="uLfX691gu2MOgadE7vkb-6" value="Gy_R" style="rhombus;whiteSpace=wrap;html=1;" parent="1" vertex="1">
          <mxGeometry x="760" y="410" width="80" height="80" as="geometry" />
        </mxCell>
        <mxCell id="uLfX691gu2MOgadE7vkb-7" value="Futárnál" style="rounded=0;whiteSpace=wrap;html=1;" parent="1" vertex="1">
          <mxGeometry x="1210" y="420" width="120" height="60" as="geometry" />
        </mxCell>
        <mxCell id="uLfX691gu2MOgadE7vkb-8" value="R_Ü" style="rhombus;whiteSpace=wrap;html=1;" parent="1" vertex="1">
          <mxGeometry x="1740" y="410" width="80" height="80" as="geometry" />
        </mxCell>
        <mxCell id="uLfX691gu2MOgadE7vkb-9" value="Ügyfél" style="rounded=0;whiteSpace=wrap;html=1;" parent="1" vertex="1">
          <mxGeometry x="2240" y="420" width="120" height="60" as="geometry" />
        </mxCell>
        <mxCell id="uLfX691gu2MOgadE7vkb-10" value="" style="endArrow=classic;html=1;rounded=0;exitX=0.5;exitY=1;exitDx=0;exitDy=0;entryX=0.5;entryY=0;entryDx=0;entryDy=0;" parent="1" source="uLfX691gu2MOgadE7vkb-2" target="uLfX691gu2MOgadE7vkb-3" edge="1">
          <mxGeometry width="50" height="50" relative="1" as="geometry">
            <mxPoint x="130" y="370" as="sourcePoint" />
            <mxPoint x="260" y="360" as="targetPoint" />
          </mxGeometry>
        </mxCell>
        <mxCell id="uLfX691gu2MOgadE7vkb-11" value="" style="endArrow=classic;html=1;rounded=0;exitX=0.5;exitY=0;exitDx=0;exitDy=0;entryX=0.5;entryY=1;entryDx=0;entryDy=0;" parent="1" source="uLfX691gu2MOgadE7vkb-2" target="uLfX691gu2MOgadE7vkb-1" edge="1">
          <mxGeometry width="50" height="50" relative="1" as="geometry">
            <mxPoint x="230" y="330" as="sourcePoint" />
            <mxPoint x="230" y="430" as="targetPoint" />
          </mxGeometry>
        </mxCell>
        <mxCell id="uLfX691gu2MOgadE7vkb-12" value="" style="endArrow=classic;html=1;rounded=0;entryX=0.5;entryY=0;entryDx=0;entryDy=0;exitX=0.5;exitY=1;exitDx=0;exitDy=0;" parent="1" source="uLfX691gu2MOgadE7vkb-4" target="uLfX691gu2MOgadE7vkb-5" edge="1">
          <mxGeometry width="50" height="50" relative="1" as="geometry">
            <mxPoint x="260" y="710" as="sourcePoint" />
            <mxPoint x="240" y="440" as="targetPoint" />
          </mxGeometry>
        </mxCell>
        <mxCell id="uLfX691gu2MOgadE7vkb-13" value="" style="endArrow=classic;html=1;rounded=0;entryX=0.5;entryY=1;entryDx=0;entryDy=0;exitX=0.5;exitY=0;exitDx=0;exitDy=0;" parent="1" source="uLfX691gu2MOgadE7vkb-4" target="uLfX691gu2MOgadE7vkb-3" edge="1">
          <mxGeometry width="50" height="50" relative="1" as="geometry">
            <mxPoint x="300" y="590" as="sourcePoint" />
            <mxPoint x="250" y="450" as="targetPoint" />
          </mxGeometry>
        </mxCell>
        <mxCell id="uLfX691gu2MOgadE7vkb-14" value="" style="endArrow=classic;html=1;rounded=0;exitX=0.5;exitY=0;exitDx=0;exitDy=0;" parent="1" source="uLfX691gu2MOgadE7vkb-4" edge="1">
          <mxGeometry width="50" height="50" relative="1" as="geometry">
            <mxPoint x="260" y="360" as="sourcePoint" />
            <mxPoint x="220" y="490" as="targetPoint" />
          </mxGeometry>
        </mxCell>
        <mxCell id="uLfX691gu2MOgadE7vkb-15" value="" style="endArrow=classic;html=1;rounded=0;exitX=0.5;exitY=1;exitDx=0;exitDy=0;" parent="1" edge="1">
          <mxGeometry width="50" height="50" relative="1" as="geometry">
            <mxPoint x="220" y="870" as="sourcePoint" />
            <mxPoint x="220" y="970" as="targetPoint" />
          </mxGeometry>
        </mxCell>
        <mxCell id="uLfX691gu2MOgadE7vkb-16" value="" style="endArrow=classic;html=1;rounded=0;exitX=0;exitY=0.5;exitDx=0;exitDy=0;entryX=1;entryY=0.5;entryDx=0;entryDy=0;" parent="1" source="uLfX691gu2MOgadE7vkb-6" target="uLfX691gu2MOgadE7vkb-3" edge="1">
          <mxGeometry width="50" height="50" relative="1" as="geometry">
            <mxPoint x="230" y="330" as="sourcePoint" />
            <mxPoint x="230" y="430" as="targetPoint" />
          </mxGeometry>
        </mxCell>
        <mxCell id="uLfX691gu2MOgadE7vkb-17" value="" style="endArrow=classic;html=1;rounded=0;exitX=1;exitY=0.5;exitDx=0;exitDy=0;entryX=0;entryY=0.5;entryDx=0;entryDy=0;" parent="1" source="uLfX691gu2MOgadE7vkb-6" target="uLfX691gu2MOgadE7vkb-7" edge="1">
          <mxGeometry width="50" height="50" relative="1" as="geometry">
            <mxPoint x="240" y="340" as="sourcePoint" />
            <mxPoint x="640" y="460" as="targetPoint" />
          </mxGeometry>
        </mxCell>
        <mxCell id="uLfX691gu2MOgadE7vkb-18" value="" style="endArrow=classic;html=1;rounded=0;exitX=1;exitY=0.5;exitDx=0;exitDy=0;" parent="1" source="uLfX691gu2MOgadE7vkb-6" edge="1">
          <mxGeometry width="50" height="50" relative="1" as="geometry">
            <mxPoint x="570" y="460" as="sourcePoint" />
            <mxPoint x="1200" y="450" as="targetPoint" />
          </mxGeometry>
        </mxCell>
        <mxCell id="uLfX691gu2MOgadE7vkb-19" value="" style="endArrow=classic;html=1;rounded=0;entryX=1;entryY=0.5;entryDx=0;entryDy=0;exitX=0;exitY=0.5;exitDx=0;exitDy=0;" parent="1" source="uLfX691gu2MOgadE7vkb-8" target="uLfX691gu2MOgadE7vkb-7" edge="1">
          <mxGeometry width="50" height="50" relative="1" as="geometry">
            <mxPoint x="1220" y="430" as="sourcePoint" />
            <mxPoint x="1040" y="460" as="targetPoint" />
          </mxGeometry>
        </mxCell>
        <mxCell id="uLfX691gu2MOgadE7vkb-20" value="" style="endArrow=classic;html=1;rounded=0;exitX=0;exitY=0.5;exitDx=0;exitDy=0;" parent="1" source="uLfX691gu2MOgadE7vkb-8" edge="1">
          <mxGeometry width="50" height="50" relative="1" as="geometry">
            <mxPoint x="1210" y="400" as="sourcePoint" />
            <mxPoint x="1340" y="450" as="targetPoint" />
          </mxGeometry>
        </mxCell>
        <mxCell id="uLfX691gu2MOgadE7vkb-21" value="" style="endArrow=classic;html=1;rounded=0;exitX=1;exitY=0.5;exitDx=0;exitDy=0;entryX=0;entryY=0.5;entryDx=0;entryDy=0;" parent="1" source="uLfX691gu2MOgadE7vkb-8" target="uLfX691gu2MOgadE7vkb-9" edge="1">
          <mxGeometry width="50" height="50" relative="1" as="geometry">
            <mxPoint x="1410" y="460" as="sourcePoint" />
            <mxPoint x="1550" y="450" as="targetPoint" />
          </mxGeometry>
        </mxCell>
        <mxCell id="uLfX691gu2MOgadE7vkb-22" value="&lt;u&gt;Gyárihibás_ID&lt;/u&gt;" style="ellipse;whiteSpace=wrap;html=1;" parent="1" vertex="1">
          <mxGeometry x="-30" y="-160" width="120" height="80" as="geometry" />
        </mxCell>
        <mxCell id="uLfX691gu2MOgadE7vkb-23" value="Ár" style="ellipse;whiteSpace=wrap;html=1;" parent="1" vertex="1">
          <mxGeometry x="120" y="-160" width="120" height="80" as="geometry" />
        </mxCell>
        <mxCell id="uLfX691gu2MOgadE7vkb-24" value="Márka" style="ellipse;whiteSpace=wrap;html=1;" parent="1" vertex="1">
          <mxGeometry x="280" y="-160" width="120" height="80" as="geometry" />
        </mxCell>
        <mxCell id="uLfX691gu2MOgadE7vkb-25" value="Név" style="ellipse;whiteSpace=wrap;html=1;" parent="1" vertex="1">
          <mxGeometry x="440" y="-160" width="120" height="80" as="geometry" />
        </mxCell>
        <mxCell id="uLfX691gu2MOgadE7vkb-27" value="" style="endArrow=none;html=1;rounded=0;entryX=0.5;entryY=1;entryDx=0;entryDy=0;exitX=0.5;exitY=0;exitDx=0;exitDy=0;" parent="1" source="uLfX691gu2MOgadE7vkb-1" target="uLfX691gu2MOgadE7vkb-22" edge="1">
          <mxGeometry width="50" height="50" relative="1" as="geometry">
            <mxPoint x="210" y="210" as="sourcePoint" />
            <mxPoint x="260" y="160" as="targetPoint" />
          </mxGeometry>
        </mxCell>
        <mxCell id="uLfX691gu2MOgadE7vkb-28" value="" style="endArrow=none;html=1;rounded=0;entryX=0.5;entryY=1;entryDx=0;entryDy=0;exitX=0.5;exitY=0;exitDx=0;exitDy=0;" parent="1" source="uLfX691gu2MOgadE7vkb-1" target="uLfX691gu2MOgadE7vkb-23" edge="1">
          <mxGeometry width="50" height="50" relative="1" as="geometry">
            <mxPoint x="310" as="sourcePoint" />
            <mxPoint x="40" y="-70" as="targetPoint" />
          </mxGeometry>
        </mxCell>
        <mxCell id="uLfX691gu2MOgadE7vkb-29" value="" style="endArrow=none;html=1;rounded=0;entryX=0.5;entryY=1;entryDx=0;entryDy=0;" parent="1" target="uLfX691gu2MOgadE7vkb-24" edge="1">
          <mxGeometry width="50" height="50" relative="1" as="geometry">
            <mxPoint x="220" y="10" as="sourcePoint" />
            <mxPoint x="50" y="-60" as="targetPoint" />
          </mxGeometry>
        </mxCell>
        <mxCell id="uLfX691gu2MOgadE7vkb-31" value="&lt;u&gt;Raktár_ID&lt;/u&gt;" style="ellipse;whiteSpace=wrap;html=1;" parent="1" vertex="1">
          <mxGeometry x="-240" y="520" width="120" height="80" as="geometry" />
        </mxCell>
        <mxCell id="uLfX691gu2MOgadE7vkb-32" value="Ár" style="ellipse;whiteSpace=wrap;html=1;" parent="1" vertex="1">
          <mxGeometry y="520" width="120" height="80" as="geometry" />
        </mxCell>
        <mxCell id="uLfX691gu2MOgadE7vkb-33" value="RaktárbaÉrkezés" style="ellipse;whiteSpace=wrap;html=1;" parent="1" vertex="1">
          <mxGeometry x="310" y="520" width="120" height="80" as="geometry" />
        </mxCell>
        <mxCell id="uLfX691gu2MOgadE7vkb-34" value="(Cím)" style="ellipse;whiteSpace=wrap;html=1;" parent="1" vertex="1">
          <mxGeometry x="510" y="520" width="120" height="80" as="geometry" />
        </mxCell>
        <mxCell id="uLfX691gu2MOgadE7vkb-35" value="ISZ" style="ellipse;whiteSpace=wrap;html=1;" parent="1" vertex="1">
          <mxGeometry x="310" y="680" width="120" height="80" as="geometry" />
        </mxCell>
        <mxCell id="uLfX691gu2MOgadE7vkb-36" value="Utca" style="ellipse;whiteSpace=wrap;html=1;" parent="1" vertex="1">
          <mxGeometry x="460" y="680" width="120" height="80" as="geometry" />
        </mxCell>
        <mxCell id="uLfX691gu2MOgadE7vkb-37" value="Város" style="ellipse;whiteSpace=wrap;html=1;" parent="1" vertex="1">
          <mxGeometry x="620" y="680" width="120" height="80" as="geometry" />
        </mxCell>
        <mxCell id="uLfX691gu2MOgadE7vkb-38" value="Házszám" style="ellipse;whiteSpace=wrap;html=1;" parent="1" vertex="1">
          <mxGeometry x="780" y="680" width="120" height="80" as="geometry" />
        </mxCell>
        <mxCell id="uLfX691gu2MOgadE7vkb-39" value="" style="endArrow=none;html=1;rounded=0;entryX=0.5;entryY=1;entryDx=0;entryDy=0;exitX=0.5;exitY=0;exitDx=0;exitDy=0;" parent="1" source="uLfX691gu2MOgadE7vkb-33" target="uLfX691gu2MOgadE7vkb-3" edge="1">
          <mxGeometry width="50" height="50" relative="1" as="geometry">
            <mxPoint x="250" y="790" as="sourcePoint" />
            <mxPoint x="300" y="740" as="targetPoint" />
          </mxGeometry>
        </mxCell>
        <mxCell id="uLfX691gu2MOgadE7vkb-40" value="" style="endArrow=none;html=1;rounded=0;entryX=0.5;entryY=1;entryDx=0;entryDy=0;exitX=0.5;exitY=0;exitDx=0;exitDy=0;" parent="1" source="uLfX691gu2MOgadE7vkb-34" target="uLfX691gu2MOgadE7vkb-3" edge="1">
          <mxGeometry width="50" height="50" relative="1" as="geometry">
            <mxPoint x="310" y="530" as="sourcePoint" />
            <mxPoint x="230" y="490" as="targetPoint" />
          </mxGeometry>
        </mxCell>
        <mxCell id="uLfX691gu2MOgadE7vkb-41" value="" style="endArrow=none;html=1;rounded=0;entryX=0.5;entryY=1;entryDx=0;entryDy=0;exitX=0.5;exitY=0;exitDx=0;exitDy=0;" parent="1" source="uLfX691gu2MOgadE7vkb-32" target="uLfX691gu2MOgadE7vkb-3" edge="1">
          <mxGeometry width="50" height="50" relative="1" as="geometry">
            <mxPoint x="320" y="540" as="sourcePoint" />
            <mxPoint x="240" y="500" as="targetPoint" />
          </mxGeometry>
        </mxCell>
        <mxCell id="uLfX691gu2MOgadE7vkb-42" value="" style="endArrow=none;html=1;rounded=0;entryX=0.5;entryY=1;entryDx=0;entryDy=0;exitX=0.5;exitY=0;exitDx=0;exitDy=0;" parent="1" source="uLfX691gu2MOgadE7vkb-31" target="uLfX691gu2MOgadE7vkb-3" edge="1">
          <mxGeometry width="50" height="50" relative="1" as="geometry">
            <mxPoint x="330" y="550" as="sourcePoint" />
            <mxPoint x="250" y="510" as="targetPoint" />
          </mxGeometry>
        </mxCell>
        <mxCell id="uLfX691gu2MOgadE7vkb-43" value="" style="endArrow=none;html=1;rounded=0;entryX=0.5;entryY=1;entryDx=0;entryDy=0;exitX=0.5;exitY=0;exitDx=0;exitDy=0;" parent="1" source="uLfX691gu2MOgadE7vkb-35" target="uLfX691gu2MOgadE7vkb-34" edge="1">
          <mxGeometry width="50" height="50" relative="1" as="geometry">
            <mxPoint x="340" y="560" as="sourcePoint" />
            <mxPoint x="260" y="520" as="targetPoint" />
          </mxGeometry>
        </mxCell>
        <mxCell id="uLfX691gu2MOgadE7vkb-44" value="" style="endArrow=none;html=1;rounded=0;exitX=0.5;exitY=0;exitDx=0;exitDy=0;entryX=0.5;entryY=1;entryDx=0;entryDy=0;" parent="1" source="uLfX691gu2MOgadE7vkb-36" target="uLfX691gu2MOgadE7vkb-34" edge="1">
          <mxGeometry width="50" height="50" relative="1" as="geometry">
            <mxPoint x="380" y="690" as="sourcePoint" />
            <mxPoint x="550" y="640" as="targetPoint" />
          </mxGeometry>
        </mxCell>
        <mxCell id="uLfX691gu2MOgadE7vkb-45" value="" style="endArrow=none;html=1;rounded=0;entryX=0.5;entryY=1;entryDx=0;entryDy=0;exitX=0.5;exitY=0;exitDx=0;exitDy=0;" parent="1" source="uLfX691gu2MOgadE7vkb-37" target="uLfX691gu2MOgadE7vkb-34" edge="1">
          <mxGeometry width="50" height="50" relative="1" as="geometry">
            <mxPoint x="390" y="700" as="sourcePoint" />
            <mxPoint x="480" y="620" as="targetPoint" />
          </mxGeometry>
        </mxCell>
        <mxCell id="uLfX691gu2MOgadE7vkb-46" value="" style="endArrow=none;html=1;rounded=0;exitX=0.5;exitY=0;exitDx=0;exitDy=0;entryX=0.5;entryY=1;entryDx=0;entryDy=0;" parent="1" source="uLfX691gu2MOgadE7vkb-38" target="uLfX691gu2MOgadE7vkb-34" edge="1">
          <mxGeometry width="50" height="50" relative="1" as="geometry">
            <mxPoint x="400" y="710" as="sourcePoint" />
            <mxPoint x="640" y="600" as="targetPoint" />
          </mxGeometry>
        </mxCell>
        <mxCell id="uLfX691gu2MOgadE7vkb-47" value="" style="endArrow=none;html=1;rounded=0;entryX=0.5;entryY=1;entryDx=0;entryDy=0;" parent="1" target="uLfX691gu2MOgadE7vkb-25" edge="1">
          <mxGeometry width="50" height="50" relative="1" as="geometry">
            <mxPoint x="220" y="10" as="sourcePoint" />
            <mxPoint x="350" y="-70" as="targetPoint" />
          </mxGeometry>
        </mxCell>
        <mxCell id="uLfX691gu2MOgadE7vkb-48" value="Várható_érkezés" style="ellipse;whiteSpace=wrap;html=1;" parent="1" vertex="1">
          <mxGeometry x="-60" y="1120" width="120" height="80" as="geometry" />
        </mxCell>
        <mxCell id="uLfX691gu2MOgadE7vkb-49" value="&lt;u&gt;Beeszállító_id&lt;/u&gt;" style="ellipse;whiteSpace=wrap;html=1;" parent="1" vertex="1">
          <mxGeometry x="90" y="1120" width="120" height="80" as="geometry" />
        </mxCell>
        <mxCell id="uLfX691gu2MOgadE7vkb-50" value="Ár" style="ellipse;whiteSpace=wrap;html=1;" parent="1" vertex="1">
          <mxGeometry x="250" y="1120" width="120" height="80" as="geometry" />
        </mxCell>
        <mxCell id="uLfX691gu2MOgadE7vkb-51" value="CsomagolásTípusa" style="ellipse;whiteSpace=wrap;html=1;" parent="1" vertex="1">
          <mxGeometry x="410" y="1120" width="120" height="80" as="geometry" />
        </mxCell>
        <mxCell id="uLfX691gu2MOgadE7vkb-52" value="" style="endArrow=none;html=1;rounded=0;entryX=0.5;entryY=1;entryDx=0;entryDy=0;exitX=0.5;exitY=0;exitDx=0;exitDy=0;" parent="1" source="uLfX691gu2MOgadE7vkb-48" target="uLfX691gu2MOgadE7vkb-5" edge="1">
          <mxGeometry width="50" height="50" relative="1" as="geometry">
            <mxPoint y="690" as="sourcePoint" />
            <mxPoint x="230" y="650" as="targetPoint" />
          </mxGeometry>
        </mxCell>
        <mxCell id="uLfX691gu2MOgadE7vkb-53" value="" style="endArrow=none;html=1;rounded=0;entryX=0.5;entryY=1;entryDx=0;entryDy=0;exitX=0.5;exitY=0;exitDx=0;exitDy=0;" parent="1" source="uLfX691gu2MOgadE7vkb-49" target="uLfX691gu2MOgadE7vkb-5" edge="1">
          <mxGeometry width="50" height="50" relative="1" as="geometry">
            <mxPoint x="10" y="700" as="sourcePoint" />
            <mxPoint x="240" y="660" as="targetPoint" />
          </mxGeometry>
        </mxCell>
        <mxCell id="uLfX691gu2MOgadE7vkb-54" value="" style="endArrow=none;html=1;rounded=0;entryX=0.5;entryY=1;entryDx=0;entryDy=0;exitX=0.5;exitY=0;exitDx=0;exitDy=0;" parent="1" source="uLfX691gu2MOgadE7vkb-50" target="uLfX691gu2MOgadE7vkb-5" edge="1">
          <mxGeometry width="50" height="50" relative="1" as="geometry">
            <mxPoint x="200" y="1100" as="sourcePoint" />
            <mxPoint x="230" y="1020" as="targetPoint" />
          </mxGeometry>
        </mxCell>
        <mxCell id="uLfX691gu2MOgadE7vkb-56" value="" style="endArrow=none;html=1;rounded=0;exitX=0.5;exitY=0;exitDx=0;exitDy=0;entryX=0.5;entryY=1;entryDx=0;entryDy=0;" parent="1" source="uLfX691gu2MOgadE7vkb-51" target="uLfX691gu2MOgadE7vkb-5" edge="1">
          <mxGeometry width="50" height="50" relative="1" as="geometry">
            <mxPoint x="360" y="1100" as="sourcePoint" />
            <mxPoint x="370" y="1010" as="targetPoint" />
          </mxGeometry>
        </mxCell>
        <mxCell id="uLfX691gu2MOgadE7vkb-57" value="&lt;u&gt;Darabszám&lt;/u&gt;" style="ellipse;whiteSpace=wrap;html=1;" parent="1" vertex="1">
          <mxGeometry x="-90" y="690" width="120" height="80" as="geometry" />
        </mxCell>
        <mxCell id="uLfX691gu2MOgadE7vkb-58" value="" style="endArrow=none;html=1;rounded=0;entryX=0;entryY=0.5;entryDx=0;entryDy=0;exitX=1;exitY=0.5;exitDx=0;exitDy=0;" parent="1" source="uLfX691gu2MOgadE7vkb-57" target="uLfX691gu2MOgadE7vkb-4" edge="1">
          <mxGeometry width="50" height="50" relative="1" as="geometry">
            <mxPoint x="70" y="630" as="sourcePoint" />
            <mxPoint x="120" y="580" as="targetPoint" />
          </mxGeometry>
        </mxCell>
        <mxCell id="uLfX691gu2MOgadE7vkb-59" value="&lt;u&gt;RendelésSzám&lt;/u&gt;" style="ellipse;whiteSpace=wrap;html=1;" parent="1" vertex="1">
          <mxGeometry x="1030" y="670" width="120" height="80" as="geometry" />
        </mxCell>
        <mxCell id="uLfX691gu2MOgadE7vkb-60" value="Helyzet" style="ellipse;whiteSpace=wrap;html=1;" parent="1" vertex="1">
          <mxGeometry x="1180" y="670" width="120" height="80" as="geometry" />
        </mxCell>
        <mxCell id="uLfX691gu2MOgadE7vkb-61" value="VárhatóÉrkezés" style="ellipse;whiteSpace=wrap;html=1;" parent="1" vertex="1">
          <mxGeometry x="1340" y="670" width="120" height="80" as="geometry" />
        </mxCell>
        <mxCell id="uLfX691gu2MOgadE7vkb-62" value="Ár" style="ellipse;whiteSpace=wrap;html=1;" parent="1" vertex="1">
          <mxGeometry x="1500" y="670" width="120" height="80" as="geometry" />
        </mxCell>
        <mxCell id="uLfX691gu2MOgadE7vkb-63" value="VásároltTermék" style="ellipse;whiteSpace=wrap;html=1;" parent="1" vertex="1">
          <mxGeometry x="2050" y="690" width="120" height="80" as="geometry" />
        </mxCell>
        <mxCell id="uLfX691gu2MOgadE7vkb-64" value="Telefonszám" style="ellipse;whiteSpace=wrap;html=1;" parent="1" vertex="1">
          <mxGeometry x="2200" y="690" width="120" height="80" as="geometry" />
        </mxCell>
        <mxCell id="uLfX691gu2MOgadE7vkb-65" value="(Cím)" style="ellipse;whiteSpace=wrap;html=1;" parent="1" vertex="1">
          <mxGeometry x="2360" y="690" width="120" height="80" as="geometry" />
        </mxCell>
        <mxCell id="uLfX691gu2MOgadE7vkb-66" value="Vásárlás időontja" style="ellipse;whiteSpace=wrap;html=1;" parent="1" vertex="1">
          <mxGeometry x="2520" y="690" width="120" height="80" as="geometry" />
        </mxCell>
        <mxCell id="uLfX691gu2MOgadE7vkb-68" value="" style="endArrow=none;html=1;rounded=0;exitX=0.5;exitY=0;exitDx=0;exitDy=0;entryX=0.5;entryY=1;entryDx=0;entryDy=0;" parent="1" source="uLfX691gu2MOgadE7vkb-59" target="uLfX691gu2MOgadE7vkb-7" edge="1">
          <mxGeometry width="50" height="50" relative="1" as="geometry">
            <mxPoint x="950" y="690" as="sourcePoint" />
            <mxPoint x="570" y="610" as="targetPoint" />
          </mxGeometry>
        </mxCell>
        <mxCell id="uLfX691gu2MOgadE7vkb-69" value="" style="endArrow=none;html=1;rounded=0;exitX=0.5;exitY=0;exitDx=0;exitDy=0;entryX=0.5;entryY=1;entryDx=0;entryDy=0;" parent="1" source="uLfX691gu2MOgadE7vkb-60" target="uLfX691gu2MOgadE7vkb-7" edge="1">
          <mxGeometry width="50" height="50" relative="1" as="geometry">
            <mxPoint x="1140" y="690" as="sourcePoint" />
            <mxPoint x="1340" y="560" as="targetPoint" />
          </mxGeometry>
        </mxCell>
        <mxCell id="uLfX691gu2MOgadE7vkb-70" value="" style="endArrow=none;html=1;rounded=0;exitX=0.5;exitY=0;exitDx=0;exitDy=0;entryX=0.5;entryY=1;entryDx=0;entryDy=0;" parent="1" source="uLfX691gu2MOgadE7vkb-61" target="uLfX691gu2MOgadE7vkb-7" edge="1">
          <mxGeometry width="50" height="50" relative="1" as="geometry">
            <mxPoint x="1150" y="700" as="sourcePoint" />
            <mxPoint x="1390" y="560" as="targetPoint" />
          </mxGeometry>
        </mxCell>
        <mxCell id="uLfX691gu2MOgadE7vkb-71" value="" style="endArrow=none;html=1;rounded=0;exitX=0.5;exitY=0;exitDx=0;exitDy=0;entryX=0.5;entryY=1;entryDx=0;entryDy=0;" parent="1" source="uLfX691gu2MOgadE7vkb-62" target="uLfX691gu2MOgadE7vkb-7" edge="1">
          <mxGeometry width="50" height="50" relative="1" as="geometry">
            <mxPoint x="1160" y="710" as="sourcePoint" />
            <mxPoint x="1300" y="510" as="targetPoint" />
          </mxGeometry>
        </mxCell>
        <mxCell id="uLfX691gu2MOgadE7vkb-72" value="" style="endArrow=none;html=1;rounded=0;exitX=0.5;exitY=1;exitDx=0;exitDy=0;entryX=0.5;entryY=0;entryDx=0;entryDy=0;" parent="1" source="uLfX691gu2MOgadE7vkb-9" target="uLfX691gu2MOgadE7vkb-63" edge="1">
          <mxGeometry width="50" height="50" relative="1" as="geometry">
            <mxPoint x="2070" y="530" as="sourcePoint" />
            <mxPoint x="1940" y="620" as="targetPoint" />
          </mxGeometry>
        </mxCell>
        <mxCell id="uLfX691gu2MOgadE7vkb-73" value="" style="endArrow=none;html=1;rounded=0;entryX=0.5;entryY=0;entryDx=0;entryDy=0;" parent="1" target="uLfX691gu2MOgadE7vkb-64" edge="1">
          <mxGeometry width="50" height="50" relative="1" as="geometry">
            <mxPoint x="2300" y="480" as="sourcePoint" />
            <mxPoint x="2120" y="700" as="targetPoint" />
          </mxGeometry>
        </mxCell>
        <mxCell id="uLfX691gu2MOgadE7vkb-74" value="" style="endArrow=none;html=1;rounded=0;entryX=0.5;entryY=1;entryDx=0;entryDy=0;exitX=0.5;exitY=0;exitDx=0;exitDy=0;" parent="1" source="uLfX691gu2MOgadE7vkb-65" target="uLfX691gu2MOgadE7vkb-9" edge="1">
          <mxGeometry width="50" height="50" relative="1" as="geometry">
            <mxPoint x="2310" y="490" as="sourcePoint" />
            <mxPoint x="2270" y="700" as="targetPoint" />
          </mxGeometry>
        </mxCell>
        <mxCell id="uLfX691gu2MOgadE7vkb-75" value="" style="endArrow=none;html=1;rounded=0;entryX=0.5;entryY=1;entryDx=0;entryDy=0;exitX=0.5;exitY=0;exitDx=0;exitDy=0;" parent="1" source="uLfX691gu2MOgadE7vkb-66" target="uLfX691gu2MOgadE7vkb-9" edge="1">
          <mxGeometry width="50" height="50" relative="1" as="geometry">
            <mxPoint x="2320" y="500" as="sourcePoint" />
            <mxPoint x="2280" y="710" as="targetPoint" />
          </mxGeometry>
        </mxCell>
        <mxCell id="uLfX691gu2MOgadE7vkb-76" value="ISZ" style="ellipse;whiteSpace=wrap;html=1;" parent="1" vertex="1">
          <mxGeometry x="2125" y="850" width="120" height="80" as="geometry" />
        </mxCell>
        <mxCell id="uLfX691gu2MOgadE7vkb-77" value="Utca" style="ellipse;whiteSpace=wrap;html=1;" parent="1" vertex="1">
          <mxGeometry x="2275" y="850" width="120" height="80" as="geometry" />
        </mxCell>
        <mxCell id="uLfX691gu2MOgadE7vkb-78" value="Város" style="ellipse;whiteSpace=wrap;html=1;" parent="1" vertex="1">
          <mxGeometry x="2435" y="850" width="120" height="80" as="geometry" />
        </mxCell>
        <mxCell id="uLfX691gu2MOgadE7vkb-79" value="Házszám" style="ellipse;whiteSpace=wrap;html=1;" parent="1" vertex="1">
          <mxGeometry x="2595" y="850" width="120" height="80" as="geometry" />
        </mxCell>
        <mxCell id="uLfX691gu2MOgadE7vkb-80" value="" style="endArrow=none;html=1;rounded=0;entryX=0.5;entryY=0;entryDx=0;entryDy=0;exitX=0.5;exitY=1;exitDx=0;exitDy=0;" parent="1" source="uLfX691gu2MOgadE7vkb-65" target="uLfX691gu2MOgadE7vkb-76" edge="1">
          <mxGeometry width="50" height="50" relative="1" as="geometry">
            <mxPoint x="2430" y="700" as="sourcePoint" />
            <mxPoint x="2310" y="490" as="targetPoint" />
          </mxGeometry>
        </mxCell>
        <mxCell id="uLfX691gu2MOgadE7vkb-81" value="" style="endArrow=none;html=1;rounded=0;entryX=0.5;entryY=1;entryDx=0;entryDy=0;exitX=0.5;exitY=0;exitDx=0;exitDy=0;" parent="1" source="uLfX691gu2MOgadE7vkb-78" target="uLfX691gu2MOgadE7vkb-65" edge="1">
          <mxGeometry width="50" height="50" relative="1" as="geometry">
            <mxPoint x="2430" y="780" as="sourcePoint" />
            <mxPoint x="2195" y="860" as="targetPoint" />
          </mxGeometry>
        </mxCell>
        <mxCell id="uLfX691gu2MOgadE7vkb-82" value="" style="endArrow=none;html=1;rounded=0;entryX=0.5;entryY=1;entryDx=0;entryDy=0;exitX=0.5;exitY=0;exitDx=0;exitDy=0;" parent="1" source="uLfX691gu2MOgadE7vkb-79" target="uLfX691gu2MOgadE7vkb-65" edge="1">
          <mxGeometry width="50" height="50" relative="1" as="geometry">
            <mxPoint x="2440" y="790" as="sourcePoint" />
            <mxPoint x="2205" y="870" as="targetPoint" />
          </mxGeometry>
        </mxCell>
        <mxCell id="uLfX691gu2MOgadE7vkb-84" value="" style="endArrow=none;html=1;rounded=0;entryX=0.5;entryY=1;entryDx=0;entryDy=0;exitX=0.5;exitY=0;exitDx=0;exitDy=0;" parent="1" source="uLfX691gu2MOgadE7vkb-77" target="uLfX691gu2MOgadE7vkb-65" edge="1">
          <mxGeometry width="50" height="50" relative="1" as="geometry">
            <mxPoint x="2505" y="860" as="sourcePoint" />
            <mxPoint x="2430" y="780" as="targetPoint" />
          </mxGeometry>
        </mxCell>
        <mxCell id="6lv3yhP6K5yZZ86ZpZE7-1" value="" style="ellipse;whiteSpace=wrap;html=1;fillColor=none;" parent="1" vertex="1">
          <mxGeometry x="2185" y="680" width="145" height="100" as="geometry" />
        </mxCell>
        <mxCell id="eswSdxrzFSsk8v9qwOsQ-1" value="&lt;u&gt;Csomagszám&lt;/u&gt;" style="ellipse;whiteSpace=wrap;html=1;" vertex="1" parent="1">
          <mxGeometry x="2690" y="680" width="120" height="80" as="geometry" />
        </mxCell>
        <mxCell id="eswSdxrzFSsk8v9qwOsQ-2" value="" style="endArrow=none;html=1;rounded=0;entryX=0.5;entryY=1;entryDx=0;entryDy=0;exitX=0.5;exitY=0;exitDx=0;exitDy=0;" edge="1" parent="1" source="eswSdxrzFSsk8v9qwOsQ-1">
          <mxGeometry width="50" height="50" relative="1" as="geometry">
            <mxPoint x="2590" y="700" as="sourcePoint" />
            <mxPoint x="2310" y="490" as="targetPoint" />
          </mxGeometry>
        </mxCell>
      </root>
    </mxGraphModel>
  </diagram>
</mxfile>
